<svg width="27" height="36" viewBox="0 0 27 36" fill="none" xmlns="http://www.w3.org/2000/svg">
<path d="M23.2576 11.1198C24.1061 10.2712 24.1061 8.89318 23.2576 8.04462C22.409 7.19606 21.0309 7.19606 20.1824 8.04462L13.0341 15.1997L5.87908 8.05141C5.03052 7.20285 3.65246 7.20285 2.8039 8.05141C1.95534 8.89997 1.95534 10.278 2.8039 11.1266L9.95895 18.2748L2.81069 25.4299C1.96213 26.2785 1.96213 27.6565 2.81069 28.5051C3.65925 29.3536 5.03731 29.3536 5.88586 28.5051L13.0341 21.35L20.1892 28.4983C21.0377 29.3468 22.4158 29.3468 23.2643 28.4983C24.1129 27.6497 24.1129 26.2717 23.2643 25.4231L16.1093 18.2748L23.2576 11.1198Z" fill="#108ABE"/>
</svg>
